<svg width="20" height="20" viewBox="0 0 20 20" fill="none" xmlns="http://www.w3.org/2000/svg">
<path d="M10.0003 3.04166C8.6241 3.04166 7.27878 3.44976 6.13449 4.21435C4.99019 4.97895 4.09833 6.06569 3.57167 7.33716C3.04501 8.60863 2.90721 10.0077 3.1757 11.3575C3.44419 12.7073 4.1069 13.9471 5.08004 14.9203C6.05318 15.8934 7.29304 16.5561 8.64282 16.8246C9.99261 17.0931 11.3917 16.9553 12.6632 16.4287C13.9346 15.902 15.0214 15.0101 15.786 13.8658C16.5506 12.7215 16.9587 11.3762 16.9587 10C16.9565 8.15521 16.2226 6.38661 14.9182 5.08215C13.6137 3.77769 11.8451 3.04387 10.0003 3.04166ZM10.7087 13.4583H9.292V9.0625H10.7087V13.4583ZM10.7087 7.83333H9.292V6.58333H10.7087V7.83333Z" fill="#343434"/>
</svg>
