<svg width="20" height="20" viewBox="0 0 20 20" fill="none" xmlns="http://www.w3.org/2000/svg">
<g clip-path="url(#clip0_274_8153)">
<path d="M13.9167 3.87492H6.08333C5.49799 3.87602 4.93693 4.10903 4.52302 4.52294C4.10912 4.93684 3.8761 5.4979 3.875 6.08325V13.9166C3.8761 14.5019 4.10912 15.063 4.52302 15.4769C4.93693 15.8908 5.49799 16.1238 6.08333 16.1249H13.9167C14.502 16.1238 15.0631 15.8908 15.477 15.4769C15.8909 15.063 16.1239 14.5019 16.125 13.9166V6.08325C16.1239 5.4979 15.8909 4.93684 15.477 4.52294C15.0631 4.10903 14.502 3.87602 13.9167 3.87492ZM5.29167 13.9166V6.08325C5.29167 5.87329 5.37507 5.67192 5.52354 5.52346C5.67201 5.37499 5.87337 5.29158 6.08333 5.29158H7.625V14.7083H6.08333C5.87337 14.7083 5.67201 14.6248 5.52354 14.4764C5.37507 14.3279 5.29167 14.1265 5.29167 13.9166ZM14.7083 13.9166C14.7083 14.1265 14.6249 14.3279 14.4765 14.4764C14.328 14.6248 14.1266 14.7083 13.9167 14.7083H9.04167V5.29158H13.9167C14.1266 5.29158 14.328 5.37499 14.4765 5.52346C14.6249 5.67192 14.7083 5.87329 14.7083 6.08325V13.9166Z" fill="#343434"/>
</g>
<defs>
<clipPath id="clip0_274_8153">
<rect width="20" height="20" fill="white"/>
</clipPath>
</defs>
</svg>
