<svg width="20" height="20" viewBox="0 0 20 20" fill="none" xmlns="http://www.w3.org/2000/svg">
<path d="M5.66537 11.0827C6.26368 11.0827 6.7487 10.5977 6.7487 9.99935C6.7487 9.40102 6.26368 8.91602 5.66537 8.91602C5.06706 8.91602 4.58203 9.40102 4.58203 9.99935C4.58203 10.5977 5.06706 11.0827 5.66537 11.0827Z" fill="#343434"/>
<path d="M14.3323 11.0827C14.9307 11.0827 15.4157 10.5977 15.4157 9.99933C15.4157 9.401 14.9307 8.916 14.3323 8.916C13.734 8.916 13.249 9.401 13.249 9.99933C13.249 10.5977 13.734 11.0827 14.3323 11.0827Z" fill="#343434"/>
<path d="M9.99885 11.0827C10.5972 11.0827 11.0822 10.5977 11.0822 9.99933C11.0822 9.401 10.5972 8.916 9.99885 8.916C9.4006 8.916 8.91551 9.401 8.91551 9.99933C8.91551 10.5977 9.4006 11.0827 9.99885 11.0827Z" fill="#343434"/>
</svg>
