<svg width="20" height="20" viewBox="0 0 20 20" fill="none" xmlns="http://www.w3.org/2000/svg">
<path d="M8.96621 16.1209C7.84538 16.1209 6.72038 15.6959 5.86621 14.8418C4.15788 13.1334 4.15788 10.3543 5.86621 8.64593L9.69538 4.81676C10.9495 3.5626 12.9954 3.5626 14.2495 4.81676C15.5037 6.07093 15.5037 8.11676 14.2495 9.37093L10.4412 13.1793C10.0537 13.5668 9.53288 13.7834 8.98288 13.7834C8.43288 13.7834 7.91621 13.5709 7.52454 13.1793C6.72038 12.3751 6.72038 11.0668 7.52454 10.2626L10.6704 7.11676L11.6704 8.11676L8.52454 11.2626C8.40371 11.3834 8.33704 11.5459 8.33704 11.7168C8.33704 11.8876 8.40371 12.0501 8.52454 12.1709C8.76621 12.4168 9.19121 12.4168 9.43704 12.1709L13.2454 8.36259C13.9495 7.65843 13.9495 6.51259 13.2454 5.81259C12.5412 5.10843 11.3954 5.10843 10.6954 5.81259L6.86621 9.64176C5.71204 10.7959 5.71204 12.6793 6.86621 13.8334C8.02038 14.9876 9.90371 14.9876 11.0579 13.8334L14.2037 10.6876L15.2037 11.6876L12.0579 14.8334C11.2037 15.6876 10.0829 16.1126 8.95788 16.1126L8.96621 16.1209Z" fill="#343434"/>
</svg>
