<svg width="20" height="20" viewBox="0 0 20 20" fill="none" xmlns="http://www.w3.org/2000/svg">
<path d="M14.083 16.125C13.8803 16.1247 13.6812 16.0731 13.5038 15.975L9.99968 14.0625L6.49552 15.975C6.31167 16.0754 6.10486 16.1263 5.8954 16.1227C5.68593 16.119 5.48102 16.061 5.30076 15.9543C5.12049 15.8475 4.97107 15.6958 4.86716 15.5138C4.76324 15.3319 4.70838 15.1262 4.70801 14.9167V6.0833C4.70801 5.49761 4.94068 4.93596 5.35482 4.52181C5.76897 4.10767 6.33067 3.875 6.91636 3.875H13.083C13.6688 3.875 14.2303 4.10767 14.6445 4.52181C15.0587 4.93596 15.2914 5.49761 15.2914 6.0833V14.9167C15.2923 15.1263 15.2382 15.3324 15.1343 15.5146C15.0305 15.6967 14.8806 15.8483 14.6997 15.9542C14.5131 16.0651 14.3001 16.1241 14.083 16.125ZM9.99968 12.5458C10.1178 12.5457 10.234 12.5758 10.3372 12.6333L13.8747 14.5625V6.0833C13.8736 5.87367 13.7899 5.67295 13.6416 5.52473C13.4934 5.3765 13.2927 5.29277 13.083 5.29167H6.91636C6.7064 5.29167 6.50503 5.37504 6.35657 5.5235C6.2081 5.67197 6.12468 5.87334 6.12468 6.0833V14.5625L9.65802 12.6333C9.76285 12.5762 9.88027 12.5461 9.99968 12.5458Z" fill="#343434"/>
</svg>
