<svg width="20" height="20" viewBox="0 0 20 20" fill="none" xmlns="http://www.w3.org/2000/svg">
<path d="M15.5622 5.17116L15.1122 7.02533C14.0747 5.23783 12.1455 4.08366 9.99967 4.08366C6.73717 4.08366 4.08301 6.73783 4.08301 10.0003C4.08301 13.2628 6.73717 15.917 9.99967 15.917C12.6997 15.917 15.058 14.092 15.7288 11.4795L14.358 11.1253C13.8455 13.1128 12.0538 14.4962 9.99967 14.4962C7.51634 14.4962 5.49967 12.4795 5.49967 9.99616C5.49967 7.51283 7.51634 5.49616 9.99967 5.49616C11.7163 5.49616 13.2497 6.46699 14.0038 7.94616L11.8455 7.31283L11.4455 8.67116L14.6413 9.61283C14.7538 9.64616 14.8663 9.66283 14.9788 9.66283C15.1913 9.66283 15.3997 9.60866 15.583 9.50033C15.8663 9.33783 16.0747 9.05866 16.1538 8.73783L16.9372 5.50033L15.5622 5.16699V5.17116Z" fill="#343434"/>
</svg>
