<svg width="20" height="20" viewBox="0 0 20 20" fill="none" xmlns="http://www.w3.org/2000/svg">
<path d="M13.709 16.7499H8.79232C7.57565 16.7499 6.58398 15.7583 6.58398 14.5416V7.95825C6.58398 6.74159 7.57565 5.74992 8.79232 5.74992H13.709C14.9257 5.74992 15.9173 6.74159 15.9173 7.95825V14.5416C15.9173 15.7583 14.9257 16.7499 13.709 16.7499ZM8.79232 7.16659C8.35482 7.16659 8.00065 7.52075 8.00065 7.95825V14.5416C8.00065 14.9791 8.35482 15.3333 8.79232 15.3333H13.709C14.1465 15.3333 14.5007 14.9791 14.5007 14.5416V7.95825C14.5007 7.52075 14.1465 7.16659 13.709 7.16659H8.79232Z" fill="#343434"/>
<path d="M5.50065 13.5416H4.08398V5.45825C4.08398 4.24159 5.07565 3.24992 6.29232 3.24992H12.709V4.66659H6.29232C5.85482 4.66659 5.50065 5.02075 5.50065 5.45825V13.5416Z" fill="#343434"/>
</svg>
