<svg width="20" height="20" viewBox="0 0 20 20" fill="none" xmlns="http://www.w3.org/2000/svg">
<path d="M13.083 3.88033H6.91634C6.33066 3.88033 5.76895 4.113 5.35481 4.52715C4.94067 4.9413 4.70802 5.50295 4.70802 6.08863V14.922C4.70705 15.1316 4.76121 15.3378 4.86505 15.5199C4.9689 15.702 5.11877 15.8536 5.29968 15.9595C5.48146 16.0644 5.68768 16.1197 5.8976 16.1197C6.1075 16.1197 6.31372 16.0644 6.4955 15.9595L9.99968 14.047L13.5038 15.9595C13.6877 16.0599 13.8945 16.1108 14.104 16.1072C14.3134 16.1035 14.5183 16.0455 14.6986 15.9388C14.8789 15.832 15.0283 15.6803 15.1323 15.4983C15.2362 15.3165 15.2909 15.1107 15.2913 14.9012V6.06783C15.2858 5.48576 15.0508 4.92937 14.6372 4.51972C14.2237 4.11008 13.6651 3.8803 13.083 3.88033Z" fill="#343434"/>
</svg>
