<svg width="20" height="20" viewBox="0 0 20 20" fill="none" xmlns="http://www.w3.org/2000/svg">
<path d="M9.48684 9.375H8.07015V12.7083H9.48684V9.375Z" fill="#343434"/>
<path d="M11.9868 9.375H10.5702V12.7083H11.9868V9.375Z" fill="#343434"/>
<path d="M15.4455 5.95866H12.5288V5.08362C12.5278 4.76349 12.4001 4.45682 12.1737 4.23045C11.9473 4.00409 11.6407 3.87643 11.3205 3.87533H8.70801C8.38751 3.87533 8.0802 4.00263 7.85359 4.22923C7.62698 4.45584 7.49967 4.76315 7.49967 5.08362V5.95866H4.58301V7.37529H5.12467V13.917C5.12577 14.5024 5.35879 15.0634 5.7727 15.4773C6.1866 15.8912 6.74767 16.1242 7.33301 16.1253H12.6663C13.2517 16.1242 13.8128 15.8912 14.2267 15.4773C14.6406 15.0634 14.8736 14.5024 14.8747 13.917V7.37529H15.4163L15.4455 5.95866ZM8.93301 5.29195H11.1288V5.95866H8.93301V5.29195ZM13.4872 13.917C13.4872 14.127 13.4038 14.3283 13.2553 14.4768C13.1068 14.6253 12.9055 14.7087 12.6955 14.7087H7.36217C7.15221 14.7087 6.95085 14.6253 6.80238 14.4768C6.65392 14.3283 6.57051 14.127 6.57051 13.917V7.37529H13.4872V13.917Z" fill="#343434"/>
</svg>
