<svg width="20" height="20" viewBox="0 0 20 20" fill="none" xmlns="http://www.w3.org/2000/svg">
<path d="M13.6733 7.27103L14.5257 6.41868C14.7867 6.15771 14.7867 5.7357 14.5257 5.47472C14.2647 5.21374 13.8427 5.21374 13.5817 5.47472L12.7294 6.32706C12.4684 6.58804 12.4684 7.01005 12.7294 7.27103C12.9904 7.53201 13.4124 7.53201 13.6733 7.27103Z" fill="#46D88A"/>
<path d="M6.41847 14.5253L7.27081 13.673C7.53179 13.412 7.53179 12.99 7.27081 12.729C7.00983 12.468 6.58782 12.468 6.32685 12.729L5.4745 13.5814C5.21352 13.8423 5.21352 14.2643 5.4745 14.5253C5.73548 14.7863 6.15749 14.7863 6.41847 14.5253Z" fill="#46D88A"/>
<path d="M12.7292 13.673L13.5815 14.5253C13.8425 14.7863 14.2645 14.7863 14.5255 14.5253C14.7865 14.2643 14.7865 13.8423 14.5255 13.5814L13.6732 12.729C13.4122 12.468 12.9902 12.468 12.7292 12.729C12.4682 12.99 12.4682 13.412 12.7292 13.673Z" fill="#46D88A"/>
<path d="M5.47431 6.41829L6.32665 7.27064C6.58763 7.53162 7.00964 7.53162 7.27062 7.27064C7.5316 7.00966 7.5316 6.58765 7.27062 6.32667L6.41827 5.47433C6.15729 5.21335 5.73529 5.21335 5.47431 5.47433C5.21333 5.73531 5.21333 6.15731 5.47431 6.41829Z" fill="#46D88A"/>
<path d="M15.8143 9.3337L12.838 9.3337C12.4716 9.3337 12.1717 9.63355 12.1717 10C12.1717 10.3665 12.4716 10.6664 12.838 10.6664L15.8143 10.6664C16.1808 10.6664 16.4806 10.3665 16.4806 10C16.4806 9.63355 16.1808 9.3337 15.8143 9.3337Z" fill="#2CA4FB"/>
<path d="M7.16294 9.3337L4.18667 9.3337C3.82019 9.3337 3.52034 9.63355 3.52034 10C3.52034 10.3665 3.82019 10.6664 4.18667 10.6664L7.16294 10.6664C7.52942 10.6664 7.82927 10.3665 7.82927 10C7.82927 9.63355 7.52942 9.3337 7.16294 9.3337Z" fill="#2CA4FB"/>
<path d="M10.6663 15.8136L10.6663 12.8373C10.6663 12.4708 10.3665 12.171 10 12.171C9.63352 12.171 9.33367 12.4708 9.33367 12.8373L9.33367 15.8136C9.33367 16.18 9.63352 16.4799 10 16.4799C10.3665 16.4799 10.6663 16.18 10.6663 15.8136Z" fill="#2CA4FB"/>
<path d="M10.6693 7.16511L10.6693 4.18885C10.6693 3.82236 10.3694 3.52252 10.0029 3.52252C9.63645 3.52252 9.3366 3.82236 9.3366 4.18885L9.3366 7.16511C9.3366 7.5316 9.63645 7.83144 10.0029 7.83144C10.3694 7.83144 10.6693 7.5316 10.6693 7.16511Z" fill="#2CA4FB"/>
</svg>
