<svg width="20" height="20" viewBox="0 0 20 20" fill="none" xmlns="http://www.w3.org/2000/svg">
<g clip-path="url(#clip0_274_8099)">
<path d="M15.3552 4.64674C15.2396 4.52986 15.1011 4.4381 14.9484 4.37717C14.7957 4.31623 14.632 4.28744 14.4677 4.29258L10.851 4.38006L10.8844 5.79674L13.2593 5.7384L5.73854 13.2384L5.79688 10.8634L4.38019 10.8301L4.29271 14.4509C4.28712 14.6131 4.31423 14.7747 4.37244 14.9261C4.43065 15.0776 4.51877 15.2158 4.63154 15.3324C4.7443 15.4491 4.87941 15.5418 5.02879 15.6051C5.17819 15.6684 5.33879 15.701 5.50104 15.7009H5.5302L9.14684 15.6093L9.11359 14.1968L6.73854 14.2509L14.2386 6.75093L14.1802 9.12592L15.5969 9.15925L15.6843 5.54258C15.6932 5.37874 15.6686 5.21478 15.612 5.06076C15.5554 4.90674 15.468 4.76589 15.3552 4.64674Z" fill="#343434"/>
</g>
<defs>
<clipPath id="clip0_274_8099">
<rect width="20" height="20" fill="white"/>
</clipPath>
</defs>
</svg>
