<svg width="20" height="20" viewBox="0 0 20 20" fill="none" xmlns="http://www.w3.org/2000/svg">
<path d="M15.6083 8.41242C15.1875 7.91242 14.5708 7.62492 13.9167 7.62492H11.9875L12.25 6.66242C12.4333 5.99159 12.2958 5.29159 11.875 4.74159C11.4542 4.19159 10.8125 3.87492 10.1208 3.87492H9.87917C9.44167 3.87492 9.0375 4.11242 8.82083 4.49575L7.08333 7.62492H5.08333C4.41667 7.62492 3.875 8.16659 3.875 8.83325V14.4999C3.875 15.1666 4.41667 15.7083 5.08333 15.7083H7.38333L8.44583 16.0624C8.57083 16.1041 8.7 16.1249 8.82917 16.1249H13.1958C14.2708 16.1249 15.1833 15.3583 15.3708 14.2999L16.0917 10.2166C16.2042 9.57075 16.0292 8.91659 15.6083 8.41242ZM5.29167 9.04159H6.79167V14.2916H5.29167V9.04159ZM14.6958 9.97075L13.975 14.0541C13.9083 14.4333 13.5792 14.7083 13.1958 14.7083H8.86667L8.20833 14.4874V8.51659L10 5.29159H10.1208C10.3708 5.29159 10.6 5.40409 10.75 5.60409C10.9 5.79992 10.95 6.05409 10.8833 6.29159L10.1333 9.04159H13.9167C14.1542 9.04159 14.3708 9.14159 14.525 9.32492C14.6792 9.50825 14.7375 9.73742 14.7 9.97075H14.6958Z" fill="#343434"/>
</svg>
