<svg width="20" height="20" viewBox="0 0 20 20" fill="none" xmlns="http://www.w3.org/2000/svg">
<g clip-path="url(#clip0_274_15506)">
<path d="M13.875 13.9167C13.875 14.3542 13.5208 14.7084 13.0833 14.7084H6.08333C5.64583 14.7084 5.29167 14.3542 5.29167 13.9167V6.91673C5.29167 6.47923 5.64583 6.12506 6.08333 6.12506H10V4.7084H6.08333C4.86667 4.7084 3.875 5.70006 3.875 6.91673V13.9167C3.875 15.1334 4.86667 16.1251 6.08333 16.1251H13.0833C14.3 16.1251 15.2917 15.1334 15.2917 13.9167V10.0001H13.875V13.9167Z" fill="#343434"/>
<path d="M15.7708 4.22923C15.5375 3.9959 15.2 3.8584 14.8875 3.87506L11.5583 3.95423L11.5917 5.3709L13.675 5.3209L10.0208 8.97506L11.0208 9.97506L14.675 6.3209L14.625 8.40423L16.0417 8.43756L16.125 5.1084C16.1333 4.77923 16.0042 4.4584 15.7708 4.22506V4.22923Z" fill="#343434"/>
</g>
<defs>
<clipPath id="clip0_274_15506">
<rect width="20" height="20" fill="white"/>
</clipPath>
</defs>
</svg>
