<svg width="20" height="20" viewBox="0 0 20 20" fill="none" xmlns="http://www.w3.org/2000/svg">
<g clip-path="url(#clip0_274_8156)">
<path d="M15.9585 14.9409L13.0418 12.0242C13.7155 11.1588 14.0859 10.0959 14.096 8.99925C14.1005 7.84792 13.7156 6.72894 13.0037 5.82399C12.292 4.91904 11.2952 4.28132 10.1752 4.0144C9.05524 3.74747 7.87794 3.86702 6.83451 4.35366C5.79108 4.84028 4.94281 5.66539 4.4275 6.69496C3.91219 7.72453 3.76009 8.898 3.99593 10.0249C4.23175 11.1518 4.84166 12.166 5.72657 12.9026C6.61148 13.6391 7.71942 14.0547 8.87041 14.0822C10.0214 14.1096 11.1479 13.747 12.0668 13.0534L14.9835 15.9701L15.9585 14.9409ZM9.00016 12.6534C8.27497 12.6534 7.56605 12.4383 6.96307 12.0354C6.36009 11.6325 5.89013 11.0599 5.6126 10.3899C5.33509 9.71991 5.26247 8.98266 5.40394 8.2714C5.54543 7.56013 5.89464 6.90685 6.40744 6.39406C6.92023 5.88126 7.57357 5.53201 8.28484 5.39054C8.99608 5.24905 9.73333 5.32165 10.4033 5.59917C11.0733 5.8767 11.646 6.3467 12.0489 6.94968C12.4517 7.55266 12.6668 8.26153 12.6668 8.98675C12.6657 9.95883 12.2791 10.8909 11.5917 11.5782C10.9042 12.2657 9.97233 12.6523 9.00016 12.6534Z" fill="#343434"/>
</g>
<defs>
<clipPath id="clip0_274_8156">
<rect width="20" height="20" fill="white"/>
</clipPath>
</defs>
</svg>
