<svg width="20" height="20" viewBox="0 0 20 20" fill="none" xmlns="http://www.w3.org/2000/svg">
<path d="M14.7083 10.417V13.917C14.7083 14.3545 14.3542 14.7086 13.9167 14.7086H6.08333C5.64583 14.7086 5.29167 14.3545 5.29167 13.917L5.29167 10.417H3.875V13.917C3.875 15.1336 4.86667 16.1253 6.08333 16.1253H13.9167C15.1333 16.1253 16.125 15.1336 16.125 13.917V10.417H14.7083Z" fill="#343434"/>
<path d="M9.29167 6.12946V11.9753H10.7083V6.12946L12.3708 7.87529L13.3958 6.89613L10.875 4.25029C10.4208 3.77529 9.57917 3.77529 9.125 4.25029L6.60417 6.89613L7.62917 7.87529L9.29167 6.12946Z" fill="#343434"/>
</svg>
