<svg width="20" height="20" viewBox="0 0 20 20" fill="none" xmlns="http://www.w3.org/2000/svg">
<path d="M13.75 11.375C13.0792 11.375 12.475 11.6542 12.0417 12.1042L8.59167 10.3792C8.6125 10.2542 8.625 10.1292 8.625 10C8.625 9.87083 8.6125 9.74583 8.59167 9.62083L12.0417 7.89583C12.475 8.34583 13.0792 8.625 13.75 8.625C15.0583 8.625 16.125 7.55833 16.125 6.25C16.125 4.94167 15.0583 3.875 13.75 3.875C12.4417 3.875 11.375 4.94167 11.375 6.25C11.375 6.37917 11.3875 6.50417 11.4083 6.62917L7.95833 8.35417C7.525 7.90417 6.92083 7.625 6.25 7.625C4.94167 7.625 3.875 8.69167 3.875 10C3.875 11.3083 4.94167 12.375 6.25 12.375C6.92083 12.375 7.525 12.0958 7.95833 11.6458L11.4083 13.3708C11.3875 13.4958 11.375 13.6208 11.375 13.75C11.375 15.0583 12.4417 16.125 13.75 16.125C15.0583 16.125 16.125 15.0583 16.125 13.75C16.125 12.4417 15.0583 11.375 13.75 11.375ZM13.75 5.29167C14.2792 5.29167 14.7083 5.72083 14.7083 6.25C14.7083 6.77917 14.2792 7.20833 13.75 7.20833C13.2208 7.20833 12.7917 6.77917 12.7917 6.25C12.7917 5.72083 13.2208 5.29167 13.75 5.29167ZM6.25 10.9583C5.72083 10.9583 5.29167 10.5292 5.29167 10C5.29167 9.47083 5.72083 9.04167 6.25 9.04167C6.77917 9.04167 7.20833 9.47083 7.20833 10C7.20833 10.5292 6.77917 10.9583 6.25 10.9583ZM13.75 14.7083C13.2208 14.7083 12.7917 14.2792 12.7917 13.75C12.7917 13.2208 13.2208 12.7917 13.75 12.7917C14.2792 12.7917 14.7083 13.2208 14.7083 13.75C14.7083 14.2792 14.2792 14.7083 13.75 14.7083Z" fill="#343434"/>
</svg>
