<svg width="20" height="20" viewBox="0 0 20 20" fill="none" xmlns="http://www.w3.org/2000/svg">
<path d="M4.39167 11.5876C4.8125 12.0876 5.42917 12.3751 6.08333 12.3751L8.0125 12.3751L7.75 13.3376C7.56667 14.0084 7.70417 14.7084 8.125 15.2584C8.54583 15.8084 9.1875 16.1251 9.87917 16.1251L10.1208 16.1251C10.5583 16.1251 10.9625 15.8876 11.1792 15.5042L12.9167 12.3751L14.9167 12.3751C15.5833 12.3751 16.125 11.8334 16.125 11.1667L16.125 5.50008C16.125 4.83341 15.5833 4.29175 14.9167 4.29175L12.6167 4.29174L11.5542 3.93758C11.4292 3.89591 11.3 3.87508 11.1708 3.87508L6.80417 3.87508C5.72917 3.87508 4.81667 4.64175 4.62917 5.70008L3.90833 9.78341C3.79583 10.4292 3.97083 11.0834 4.39167 11.5876ZM14.7083 10.9584L13.2083 10.9584L13.2083 5.70841L14.7083 5.70841L14.7083 10.9584ZM5.30417 10.0292L6.025 5.94591C6.09167 5.56674 6.42083 5.29175 6.80417 5.29175L11.1333 5.29175L11.7917 5.51258L11.7917 11.4834L10 14.7084L9.87917 14.7084C9.62917 14.7084 9.4 14.5959 9.25 14.3959C9.1 14.2001 9.05 13.9459 9.11667 13.7084L9.86667 10.9584L6.08333 10.9584C5.84583 10.9584 5.62917 10.8584 5.475 10.6751C5.32083 10.4917 5.2625 10.2626 5.3 10.0292L5.30417 10.0292Z" fill="#343434"/>
</svg>
