<svg width="20" height="20" viewBox="0 0 20 20" fill="none" xmlns="http://www.w3.org/2000/svg">
<path d="M10.0003 3.04199C6.16283 3.04199 3.04199 6.16283 3.04199 10.0003C3.04199 13.8378 6.16283 16.9587 10.0003 16.9587C13.8378 16.9587 16.9587 13.8378 16.9587 10.0003C16.9587 6.16283 13.8378 3.04199 10.0003 3.04199ZM9.02116 12.7212C9.02116 12.7212 9.00449 12.7212 8.99616 12.7212C8.66699 12.7128 8.35866 12.5753 8.13366 12.3337L6.15033 10.192L7.18783 9.22949L9.02533 11.2128L12.8337 7.41699L13.8337 8.42116L9.87116 12.367C9.64199 12.5962 9.34199 12.7212 9.02116 12.7212Z" fill="#343434"/>
</svg>
