<svg width="20" height="20" viewBox="0 0 20 20" fill="none" xmlns="http://www.w3.org/2000/svg">
<path d="M15.2702 5.28798L14.7118 4.72971C14.2971 4.316 13.7352 4.08366 13.1493 4.08366C12.5635 4.08366 12.0016 4.316 11.5868 4.72971L10.3743 5.94218L4.81597 11.5047C4.71451 11.6022 4.64604 11.7289 4.62013 11.8672L4.10764 14.4755C4.07243 14.6505 4.07657 14.8312 4.11977 15.0043C4.16296 15.1776 4.24412 15.339 4.35737 15.477C4.47063 15.615 4.61315 15.7261 4.77462 15.8022C4.93608 15.8783 5.11246 15.9176 5.29097 15.9172C5.36942 15.9173 5.44766 15.909 5.5243 15.8922L8.13263 15.3797C8.27029 15.352 8.39649 15.2837 8.49516 15.1838L14.0535 9.62558L15.266 8.413C15.6802 7.99877 15.9133 7.43722 15.9141 6.8514C15.9149 6.26557 15.6833 5.7033 15.2702 5.28798ZM7.64931 14.038L5.56597 14.4547L5.98264 12.3713L10.8868 7.46714L11.7202 8.30047L12.5535 9.13383L7.64931 14.038ZM14.2702 7.41719L13.5535 8.13801L12.7202 7.30468L11.8868 6.47135L12.5993 5.75886C12.7527 5.6195 12.9525 5.5423 13.1597 5.5423C13.367 5.5423 13.5667 5.6195 13.7202 5.75886L14.2827 6.32131C14.4292 6.47018 14.5113 6.67076 14.5113 6.87968C14.5113 7.0886 14.4292 7.28917 14.2827 7.43805L14.2702 7.41719Z" fill="#343434"/>
</svg>
