<svg width="20" height="20" viewBox="0 0 20 20" fill="none" xmlns="http://www.w3.org/2000/svg">
<path d="M10.0004 16.1623C8.42122 16.1623 6.84206 15.5623 5.64206 14.3582C4.47539 13.1957 3.83789 11.6457 3.83789 9.99984C3.83789 8.35401 4.47956 6.80401 5.64206 5.64151C6.74622 4.53734 8.21706 3.89567 9.77539 3.83734C10.4296 3.81234 11.0837 3.89567 11.7296 4.08317L11.3087 5.52484C10.8171 5.38317 10.3212 5.31651 9.82956 5.33734C8.65039 5.37901 7.53789 5.86651 6.70039 6.69984C5.81706 7.58317 5.33372 8.75401 5.33372 9.99984C5.33372 11.2457 5.82122 12.4165 6.70039 13.2998C8.52122 15.1207 11.4796 15.1207 13.3004 13.2998C14.5046 12.0957 14.9587 10.329 14.4796 8.68734L15.9212 8.26651C16.5546 10.4332 15.9546 12.7665 14.3629 14.3582C13.1629 15.5623 11.5837 16.1623 10.0046 16.1623H10.0004Z" fill="#343434"/>
</svg>
