<svg width="20" height="20" viewBox="0 0 20 20" fill="none" xmlns="http://www.w3.org/2000/svg">
<path d="M12.2134 8.79617L15.5051 5.50451L14.5009 4.50032L11.2092 7.792L11.2676 5.38366L9.85508 5.35034L9.76341 9.0045C9.75783 9.16658 9.78491 9.32825 9.84316 9.47975C9.90133 9.63117 9.9895 9.76933 10.1022 9.886C10.215 10.0026 10.3501 10.0954 10.4995 10.1587C10.6489 10.222 10.8095 10.2546 10.9717 10.2545H11.0009L14.6551 10.167L14.6217 8.75033L12.2134 8.79617Z" fill="#343434"/>
<path d="M9.00417 9.76242L5.34999 9.85409L5.38333 11.2708L7.79167 11.2083L4.5 14.4999L5.50416 15.5041L8.79584 12.2124L8.73751 14.6208L10.15 14.6541L10.2417 10.9999C10.2455 10.8363 10.2161 10.6738 10.1552 10.5219C10.0943 10.3701 10.0033 10.2322 9.88751 10.1166C9.65126 9.88667 9.33376 9.75942 9.00417 9.76242Z" fill="#343434"/>
</svg>
