<svg width="20" height="20" viewBox="0 0 20 20" fill="none" xmlns="http://www.w3.org/2000/svg">
<path d="M9.99934 3.04199C8.62317 3.04199 7.27779 3.45009 6.1335 4.21468C4.98921 4.97928 4.09734 6.06598 3.57069 7.33744C3.04403 8.60892 2.90624 10.0081 3.17472 11.3578C3.44321 12.7076 4.10593 13.9474 5.07907 14.9206C6.05221 15.8937 7.29206 16.5565 8.64184 16.8249C9.99159 17.0934 11.3908 16.9556 12.6623 16.4289C13.9337 15.9022 15.0204 15.0105 15.785 13.8662C16.5496 12.7219 16.9577 11.3765 16.9577 10.0003C16.9555 8.15552 16.2217 6.38696 14.9173 5.0825C13.6128 3.77803 11.8442 3.0442 9.99934 3.04199ZM13.1577 12.1544L12.1578 13.1545L9.99934 11.0003L7.84518 13.1545L6.84522 12.1544L8.99934 10.0003L6.84522 7.842L7.84518 6.84194L9.99934 8.99617L12.1578 6.84194L13.1577 7.842L11.0036 10.0003L13.1577 12.1544Z" fill="#343434"/>
</svg>
